<svg width="35" height="35" viewBox="0 0 35 35" fill="none" xmlns="http://www.w3.org/2000/svg">
<g opacity="0.8">
<mask id="path-1-outside-1_437_60" maskUnits="userSpaceOnUse" x="0" y="0.0424805" width="35" height="35" fill="black">
<rect fill="white" y="0.0424805" width="35" height="35"/>
<path fill-rule="evenodd" clip-rule="evenodd" d="M16.8124 26.3665V31.8162C15.4577 30.8249 13.734 29.0351 12.4227 26.3665H16.8124ZM5.3323 26.3665C7.63632 29.5251 11.1424 31.7508 15.1778 32.371C13.6901 31.0893 12.0384 29.1034 10.817 26.3665H5.3323ZM16.8124 24.9125H11.7871C11.0543 23.0123 10.5448 20.7474 10.4627 18.0968H16.8124V24.9125ZM10.2368 24.9125C9.54809 22.966 9.08397 20.6984 9.00806 18.0968H2.46483C2.55791 20.5681 3.24787 22.8867 4.39472 24.9125H10.2368ZM16.8124 16.6428H10.4607C10.5349 13.9675 11.034 11.7327 11.7557 9.88773H16.8124V16.6428ZM9.00613 16.6428C9.07466 14.0248 9.52732 11.785 10.2034 9.88773H4.53491C3.35265 11.8881 2.62089 14.1864 2.47927 16.6428H9.00613ZM16.8124 8.43371H12.4072C13.7266 5.84054 15.4658 4.19616 16.8124 3.29648V8.43371ZM10.7929 8.43371C12.0278 5.73238 13.7097 3.85635 15.2115 2.66645C11.266 3.26364 7.82398 5.39521 5.51282 8.43371H10.7929ZM18.2664 31.8247C19.6277 30.84 21.3636 29.0501 22.678 26.3665H18.2664V31.8247ZM24.2827 26.3665C23.0726 29.0885 21.4332 31.0642 19.9491 32.344C23.9132 31.6883 27.3536 29.4808 29.6253 26.3665H24.2827ZM24.86 24.9125C25.5441 22.9675 26.0026 20.7002 26.0724 18.0968H32.4928C32.3997 20.5682 31.7097 22.8867 30.5629 24.9125H24.86ZM24.6179 18.0968C24.5423 20.7498 24.0388 23.0141 23.3108 24.9125H18.2664V18.0968H24.6179ZM26.0712 16.6428H32.4784C32.3367 14.1864 31.605 11.8881 30.4227 9.88773H24.8982C25.5569 11.8068 25.9987 14.0514 26.0712 16.6428ZM23.3534 9.88773C24.0537 11.759 24.5384 14.0001 24.6166 16.6428H18.2664V9.88773H23.3534ZM24.3332 8.43371H29.4448C27.2539 5.55331 24.0467 3.48791 20.3578 2.77204C21.7434 4.02703 23.2247 5.89249 24.3332 8.43371ZM18.2664 2.96266C19.6281 3.89504 21.4044 5.6709 22.7338 8.43371H18.2664V2.96266ZM17.4788 34.0001C26.5798 34.0001 33.9576 26.6223 33.9576 17.5213C33.9576 8.4203 26.5798 1.04248 17.4788 1.04248C8.37781 1.04248 1 8.4203 1 17.5213C1 26.6223 8.37781 34.0001 17.4788 34.0001Z"/>
</mask>
<path fill-rule="evenodd" clip-rule="evenodd" d="M16.8124 26.3665V31.8162C15.4577 30.8249 13.734 29.0351 12.4227 26.3665H16.8124ZM5.3323 26.3665C7.63632 29.5251 11.1424 31.7508 15.1778 32.371C13.6901 31.0893 12.0384 29.1034 10.817 26.3665H5.3323ZM16.8124 24.9125H11.7871C11.0543 23.0123 10.5448 20.7474 10.4627 18.0968H16.8124V24.9125ZM10.2368 24.9125C9.54809 22.966 9.08397 20.6984 9.00806 18.0968H2.46483C2.55791 20.5681 3.24787 22.8867 4.39472 24.9125H10.2368ZM16.8124 16.6428H10.4607C10.5349 13.9675 11.034 11.7327 11.7557 9.88773H16.8124V16.6428ZM9.00613 16.6428C9.07466 14.0248 9.52732 11.785 10.2034 9.88773H4.53491C3.35265 11.8881 2.62089 14.1864 2.47927 16.6428H9.00613ZM16.8124 8.43371H12.4072C13.7266 5.84054 15.4658 4.19616 16.8124 3.29648V8.43371ZM10.7929 8.43371C12.0278 5.73238 13.7097 3.85635 15.2115 2.66645C11.266 3.26364 7.82398 5.39521 5.51282 8.43371H10.7929ZM18.2664 31.8247C19.6277 30.84 21.3636 29.0501 22.678 26.3665H18.2664V31.8247ZM24.2827 26.3665C23.0726 29.0885 21.4332 31.0642 19.9491 32.344C23.9132 31.6883 27.3536 29.4808 29.6253 26.3665H24.2827ZM24.86 24.9125C25.5441 22.9675 26.0026 20.7002 26.0724 18.0968H32.4928C32.3997 20.5682 31.7097 22.8867 30.5629 24.9125H24.86ZM24.6179 18.0968C24.5423 20.7498 24.0388 23.0141 23.3108 24.9125H18.2664V18.0968H24.6179ZM26.0712 16.6428H32.4784C32.3367 14.1864 31.605 11.8881 30.4227 9.88773H24.8982C25.5569 11.8068 25.9987 14.0514 26.0712 16.6428ZM23.3534 9.88773C24.0537 11.759 24.5384 14.0001 24.6166 16.6428H18.2664V9.88773H23.3534ZM24.3332 8.43371H29.4448C27.2539 5.55331 24.0467 3.48791 20.3578 2.77204C21.7434 4.02703 23.2247 5.89249 24.3332 8.43371ZM18.2664 2.96266C19.6281 3.89504 21.4044 5.6709 22.7338 8.43371H18.2664V2.96266ZM17.4788 34.0001C26.5798 34.0001 33.9576 26.6223 33.9576 17.5213C33.9576 8.4203 26.5798 1.04248 17.4788 1.04248C8.37781 1.04248 1 8.4203 1 17.5213C1 26.6223 8.37781 34.0001 17.4788 34.0001Z" fill="white"/>
<path d="M16.8124 31.8162L16.6943 31.9776L17.0124 32.2103V31.8162H16.8124ZM16.8124 26.3665H17.0124V26.1665H16.8124V26.3665ZM12.4227 26.3665V26.1665H12.1015L12.2432 26.4547L12.4227 26.3665ZM15.1778 32.371L15.1474 32.5687L15.8366 32.6746L15.3083 32.2195L15.1778 32.371ZM5.3323 26.3665V26.1665H4.93885L5.17072 26.4844L5.3323 26.3665ZM10.817 26.3665L10.9996 26.285L10.9468 26.1665H10.817V26.3665ZM11.7871 24.9125L11.6005 24.9845L11.6499 25.1125H11.7871V24.9125ZM16.8124 24.9125V25.1125H17.0124V24.9125H16.8124ZM10.4627 18.0968V17.8968H10.2564L10.2628 18.103L10.4627 18.0968ZM16.8124 18.0968H17.0124V17.8968H16.8124V18.0968ZM9.00806 18.0968L9.20797 18.091L9.20231 17.8968H9.00806V18.0968ZM10.2368 24.9125V25.1125H10.5197L10.4254 24.8458L10.2368 24.9125ZM2.46483 18.0968V17.8968H2.25716L2.26497 18.1044L2.46483 18.0968ZM4.39472 24.9125L4.22068 25.0111L4.27812 25.1125H4.39472V24.9125ZM10.4607 16.6428L10.2608 16.6373L10.2551 16.8428H10.4607V16.6428ZM16.8124 16.6428V16.8428H17.0124V16.6428H16.8124ZM11.7557 9.88773V9.68773H11.6192L11.5694 9.81487L11.7557 9.88773ZM16.8124 9.88773H17.0124V9.68773H16.8124V9.88773ZM10.2034 9.88773L10.3918 9.95486L10.487 9.68773H10.2034V9.88773ZM9.00613 16.6428V16.8428H9.20096L9.20606 16.6481L9.00613 16.6428ZM4.53491 9.88773V9.68773H4.4208L4.36274 9.78597L4.53491 9.88773ZM2.47927 16.6428L2.2796 16.6313L2.2674 16.8428H2.47927V16.6428ZM12.4072 8.43371L12.2289 8.34302L12.081 8.63371H12.4072V8.43371ZM16.8124 8.43371V8.63371H17.0124V8.43371H16.8124ZM16.8124 3.29648H17.0124V2.92233L16.7013 3.13018L16.8124 3.29648ZM15.2115 2.66645L15.3357 2.82321L15.9252 2.35614L15.1816 2.4687L15.2115 2.66645ZM10.7929 8.43371V8.63371H10.9214L10.9748 8.51687L10.7929 8.43371ZM5.51282 8.43371L5.35364 8.31263L5.10942 8.63371H5.51282V8.43371ZM18.2664 31.8247H18.0664V32.2162L18.3836 31.9867L18.2664 31.8247ZM22.678 26.3665L22.8577 26.4545L22.9987 26.1665H22.678V26.3665ZM18.2664 26.3665V26.1665H18.0664V26.3665H18.2664ZM24.2827 26.3665V26.1665H24.1527L24.0999 26.2853L24.2827 26.3665ZM19.9491 32.344L19.8185 32.1925L19.2793 32.6575L19.9817 32.5413L19.9491 32.344ZM29.6253 26.3665L29.7869 26.4844L30.0188 26.1665H29.6253V26.3665ZM26.0724 18.0968V17.8968H25.8777L25.8725 18.0915L26.0724 18.0968ZM24.86 24.9125L24.6714 24.8462L24.5777 25.1125H24.86V24.9125ZM32.4928 18.0968L32.6926 18.1044L32.7005 17.8968H32.4928V18.0968ZM30.5629 24.9125V25.1125H30.6795L30.7369 25.0111L30.5629 24.9125ZM23.3108 24.9125V25.1125H23.4483L23.4976 24.9841L23.3108 24.9125ZM24.6179 18.0968L24.8178 18.1025L24.8236 17.8968H24.6179V18.0968ZM18.2664 24.9125H18.0664V25.1125H18.2664V24.9125ZM18.2664 18.0968V17.8968H18.0664V18.0968H18.2664ZM26.0712 16.6428L25.8713 16.6484L25.8767 16.8428H26.0712V16.6428ZM32.4784 16.6428V16.8428H32.6902L32.678 16.6313L32.4784 16.6428ZM30.4227 9.88773L30.5949 9.78597L30.5368 9.68773H30.4227V9.88773ZM24.8982 9.88773V9.68773H24.6181L24.709 9.95265L24.8982 9.88773ZM24.6166 16.6428V16.8428H24.8226L24.8165 16.6369L24.6166 16.6428ZM23.3534 9.88773L23.5407 9.81762L23.4921 9.68773H23.3534V9.88773ZM18.2664 16.6428H18.0664V16.8428H18.2664V16.6428ZM18.2664 9.88773V9.68773H18.0664V9.88773H18.2664ZM29.4448 8.43371V8.63371H29.8482L29.604 8.31263L29.4448 8.43371ZM24.3332 8.43371L24.1499 8.51367L24.2022 8.63371H24.3332V8.43371ZM20.3578 2.77204L20.3959 2.5757L19.6924 2.43917L20.2236 2.92028L20.3578 2.77204ZM22.7338 8.43371V8.63371H23.052L22.914 8.347L22.7338 8.43371ZM18.2664 2.96266L18.3794 2.79764L18.0664 2.58333V2.96266H18.2664ZM18.2664 8.43371H18.0664V8.63371H18.2664V8.43371ZM17.0124 31.8162V26.3665H16.6124V31.8162H17.0124ZM12.2432 26.4547C13.5691 29.1532 15.3143 30.9678 16.6943 31.9776L16.9305 31.6548C15.6011 30.682 13.8988 28.9171 12.6022 26.2783L12.2432 26.4547ZM16.8124 26.1665H12.4227V26.5665H16.8124V26.1665ZM15.2082 32.1733C11.2271 31.5615 7.76754 29.3656 5.49388 26.2487L5.17072 26.4844C7.50511 29.6845 11.0578 31.9401 15.1474 32.5687L15.2082 32.1733ZM10.6344 26.448C11.8684 29.2131 13.5384 31.2226 15.0472 32.5225L15.3083 32.2195C13.8418 30.956 12.2085 28.9937 10.9996 26.285L10.6344 26.448ZM5.3323 26.5665H10.817V26.1665H5.3323V26.5665ZM11.7871 25.1125H16.8124V24.7125H11.7871V25.1125ZM10.2628 18.103C10.3456 20.776 10.8596 23.0632 11.6005 24.9845L11.9737 24.8406C11.2491 22.9614 10.7441 20.7187 10.6626 18.0906L10.2628 18.103ZM16.8124 17.8968H10.4627V18.2968H16.8124V17.8968ZM17.0124 24.9125V18.0968H16.6124V24.9125H17.0124ZM8.80814 18.1027C8.88466 20.7249 9.35258 23.0131 10.0483 24.9792L10.4254 24.8458C9.74359 22.919 9.28329 20.6719 9.20797 18.091L8.80814 18.1027ZM2.46483 18.2968H9.00806V17.8968H2.46483V18.2968ZM4.56877 24.814C3.43728 22.8153 2.75654 20.5279 2.66469 18.0893L2.26497 18.1044C2.35929 20.6084 3.05847 22.9581 4.22068 25.0111L4.56877 24.814ZM10.2368 24.7125H4.39472V25.1125H10.2368V24.7125ZM10.4607 16.8428H16.8124V16.4428H10.4607V16.8428ZM11.5694 9.81487C10.839 11.6822 10.3356 13.9398 10.2608 16.6373L10.6606 16.6484C10.7342 13.9952 11.229 11.7833 11.942 9.96058L11.5694 9.81487ZM16.8124 9.68773H11.7557V10.0877H16.8124V9.68773ZM17.0124 16.6428V9.88773H16.6124V16.6428H17.0124ZM10.015 9.82059C9.33158 11.7384 8.87526 13.9992 8.8062 16.6376L9.20606 16.6481C9.27406 14.0503 9.72306 11.8315 10.3918 9.95486L10.015 9.82059ZM4.53491 10.0877H10.2034V9.68773H4.53491V10.0877ZM2.67894 16.6543C2.81867 14.2305 3.54064 11.9631 4.70709 9.98948L4.36274 9.78597C3.16466 11.8131 2.4231 14.1422 2.2796 16.6313L2.67894 16.6543ZM9.00613 16.4428H2.47927V16.8428H9.00613V16.4428ZM12.4072 8.63371H16.8124V8.23371H12.4072V8.63371ZM16.7013 3.13018C15.3285 4.04734 13.5651 5.71692 12.2289 8.34302L12.5854 8.52441C13.8881 5.96416 15.603 4.34497 16.9235 3.46278L16.7013 3.13018ZM17.0124 8.43371V3.29648H16.6124V8.43371H17.0124ZM15.0873 2.50969C13.5626 3.71769 11.8601 5.61832 10.611 8.35056L10.9748 8.51687C12.1956 5.84645 13.8567 3.99501 15.3357 2.82321L15.0873 2.50969ZM5.67201 8.55479C7.95271 5.55633 11.349 3.45336 15.2414 2.8642L15.1816 2.4687C11.183 3.07393 7.69525 5.23409 5.35364 8.31263L5.67201 8.55479ZM10.7929 8.23371H5.51282V8.63371H10.7929V8.23371ZM18.3836 31.9867C19.7707 30.9834 21.5284 29.1683 22.8577 26.4545L22.4984 26.2786C21.1988 28.9318 19.4847 30.6966 18.1492 31.6626L18.3836 31.9867ZM18.2664 26.5665H22.678V26.1665H18.2664V26.5665ZM18.4664 31.8247V26.3665H18.0664V31.8247H18.4664ZM24.0999 26.2853C22.9024 28.979 21.2814 30.9311 19.8185 32.1925L20.0797 32.4955C21.585 31.1974 23.2428 29.1981 24.4654 26.4478L24.0999 26.2853ZM29.4637 26.2487C27.2219 29.3219 23.8272 31.4998 19.9165 32.1467L19.9817 32.5413C23.9992 31.8768 27.4852 29.6397 29.7869 26.4844L29.4637 26.2487ZM24.2827 26.5665H29.6253V26.1665H24.2827V26.5665ZM25.8725 18.0915C25.8032 20.6742 25.3485 22.9209 24.6714 24.8462L25.0487 24.9789C25.7398 23.014 26.202 20.7262 26.2724 18.1022L25.8725 18.0915ZM32.4928 17.8968H26.0724V18.2968H32.4928V17.8968ZM30.7369 25.0111C31.8992 22.9581 32.5983 20.6084 32.6926 18.1044L32.2929 18.0893C32.2011 20.5279 31.5203 22.8153 30.3889 24.814L30.7369 25.0111ZM24.86 25.1125H30.5629V24.7125H24.86V25.1125ZM23.4976 24.9841C24.2337 23.0645 24.7416 20.7779 24.8178 18.1025L24.4179 18.0911C24.3431 20.7217 23.844 22.9637 23.1241 24.8409L23.4976 24.9841ZM18.2664 25.1125H23.3108V24.7125H18.2664V25.1125ZM18.0664 18.0968V24.9125H18.4664V18.0968H18.0664ZM24.6179 17.8968H18.2664V18.2968H24.6179V17.8968ZM26.0712 16.8428H32.4784V16.4428H26.0712V16.8428ZM32.678 16.6313C32.5345 14.1422 31.793 11.8131 30.5949 9.78597L30.2505 9.98949C31.417 11.9631 32.1389 14.2305 32.2787 16.6543L32.678 16.6313ZM30.4227 9.68773H24.8982V10.0877H30.4227V9.68773ZM24.709 9.95265C25.361 11.8522 25.7994 14.0767 25.8713 16.6484L26.2711 16.6372C26.1981 14.0261 25.7528 11.7614 25.0873 9.8228L24.709 9.95265ZM24.8165 16.6369C24.7376 13.9728 24.2489 11.71 23.5407 9.81762L23.1661 9.95783C23.8585 11.8081 24.3391 14.0275 24.4167 16.6487L24.8165 16.6369ZM18.2664 16.8428H24.6166V16.4428H18.2664V16.8428ZM18.0664 9.88773V16.6428H18.4664V9.88773H18.0664ZM23.3534 9.68773H18.2664V10.0877H23.3534V9.68773ZM29.4448 8.23371H24.3332V8.63371H29.4448V8.23371ZM20.3197 2.96838C23.959 3.67462 27.1236 5.71235 29.2856 8.55479L29.604 8.31263C27.3842 5.39427 24.1345 3.30121 20.3959 2.5757L20.3197 2.96838ZM20.2236 2.92028C21.589 4.15702 23.0532 5.99946 24.1499 8.51367L24.5165 8.35375C23.3963 5.78551 21.8979 3.89705 20.4921 2.6238L20.2236 2.92028ZM22.914 8.347C21.5693 5.55221 19.7696 3.74952 18.3794 2.79764L18.1534 3.12768C19.4867 4.04056 21.2396 5.78958 22.5536 8.52043L22.914 8.347ZM22.7338 8.23371H18.2664V8.63371H22.7338V8.23371ZM18.4664 8.43371V2.96266H18.0664V8.43371H18.4664ZM33.7576 17.5213C33.7576 26.5118 26.4694 33.8001 17.4788 33.8001V34.2001C26.6903 34.2001 34.1576 26.7327 34.1576 17.5213H33.7576ZM17.4788 1.24248C26.4694 1.24248 33.7576 8.53075 33.7576 17.5213H34.1576C34.1576 8.30984 26.6903 0.84248 17.4788 0.84248V1.24248ZM1.2 17.5213C1.2 8.53075 8.48827 1.24248 17.4788 1.24248V0.84248C8.26736 0.84248 0.8 8.30984 0.8 17.5213H1.2ZM17.4788 33.8001C8.48827 33.8001 1.2 26.5118 1.2 17.5213H0.8C0.8 26.7327 8.26736 34.2001 17.4788 34.2001V33.8001Z" fill="white" mask="url(#path-1-outside-1_437_60)"/>
</g>
</svg>
