<svg width="29" height="30" viewBox="0 0 29 30" fill="none" xmlns="http://www.w3.org/2000/svg">
<g opacity="0.5">
<path d="M0 21.375V3C0 2.875 0.15 2.475 0.75 1.875C1.35 1.275 2.25 1.125 2.625 1.125C7.625 0.75 17.925 0 19.125 0C20.325 0 21.375 0.5 21.75 0.75C23.75 2.125 27.825 4.95 28.125 5.25L28.875 6V26.625C28.875 27 28.875 27.375 28.125 28.125C27.525 28.725 26.875 28.875 26.625 28.875C20.5 29.25 8.025 30 7.125 30C6.225 30 5.25 29.25 4.875 28.875C3.75 27.5 1.35 24.525 0.75 23.625C0.15 22.725 0 21.75 0 21.375Z" fill="#B7B7BA"/>
<path d="M18.7511 1.875L3.37607 3C2.77607 3.0439 2.87607 3.51829 3.00107 3.75C3.50107 4.25 4.65107 5.325 5.25107 5.625C5.85107 5.925 6.50107 6 6.75107 6C11.7511 5.625 22.0511 4.875 23.2511 4.875C24.4511 4.875 24.5011 4.375 24.3761 4.125C23.6261 3.625 21.9761 2.55 21.3761 2.25C20.7761 1.95 19.3761 1.875 18.7511 1.875Z" fill="#101018"/>
<path d="M6 9.375C6 8.475 7 8 7.5 7.875C13.125 7.5 24.6 6.75 25.5 6.75C26.4 6.75 26.875 7.75 27 8.25V24.75C27 25.65 25.75 26.375 25.125 26.625C19.625 27 8.4 27.75 7.5 27.75C6.6 27.75 6.375 26.75 6.375 26.25C6.25 21 6 10.275 6 9.375Z" fill="#101018"/>
<path d="M10.5 12.375H9.375C9.25 12.5 9 12.225 9 11.625C9 11.025 9.75 11 10.125 10.875L14.25 10.5L20.625 19.5V11.625C20 11.75 18.75 11.85 18.75 11.25C18.75 10.65 19.25 10.25 19.5 10.125L24 9.75V10.5C24 10.8 23.5 11.125 23.25 11.25H22.5V24C22.25 24.25 21.525 24.75 20.625 24.75C19.725 24.75 18.75 23.75 18.375 23.25L12.75 14.25V23.25C13.375 23.25 14.625 23.325 14.625 23.625C14.625 23.925 14.125 24.5 13.875 24.75C12.25 24.875 9 25.05 9 24.75C9 24.45 9.25 24.125 9.375 24L10.875 23.625L10.5 12.375Z" fill="#B7B7BA"/>
</g>
</svg>
