<svg width="40" height="41" viewBox="0 0 40 41" fill="none" xmlns="http://www.w3.org/2000/svg">
<g opacity="0.8" clip-path="url(#clip0_131_989)" filter="url(#filter0_d_131_989)">
<path d="M35.9937 18.2265C35.9937 21.9332 35.9937 25.6399 35.9937 29.3497C35.9937 29.7664 35.9622 30.1738 35.7825 30.5623C35.5587 31.0479 35.1963 31.3832 34.6889 31.4991C34.1405 31.6245 33.5763 31.7028 33.0121 31.7435C31.0738 31.8783 29.1354 31.9911 27.1939 32.107C26.1791 32.1665 25.161 32.2104 24.1462 32.2731C20.7422 32.4767 17.3352 32.6867 13.9313 32.8903C13.2914 32.9279 12.6485 32.9718 12.0087 32.9969C11.3878 33.0188 10.7763 32.9937 10.2185 32.6616C9.77406 32.3984 9.48409 31.9942 9.17837 31.6057C8.09416 30.2208 7.0068 28.839 5.93834 27.4446C5.43091 26.7804 4.92977 26.1067 4.47907 25.4049C4.12607 24.8503 4 24.2205 4 23.5499C4.00946 16.9481 4.0063 10.3462 4.00315 3.7443C4.00315 3.32444 4.05673 2.92338 4.23323 2.53485C4.53265 1.88312 5.0653 1.54472 5.75239 1.47892C6.95637 1.36299 8.1635 1.28779 9.36748 1.19692C11.8542 1.00892 14.341 0.81466 16.8277 0.632928C18.8985 0.479396 20.9723 0.34153 23.043 0.197398C23.8751 0.137865 24.7072 0.0689323 25.5392 0.015666C26.3493 -0.0344669 27.1498 0.0344659 27.8653 0.444929C28.3632 0.73006 28.8297 1.06846 29.2993 1.39432C30.3646 2.13065 31.4268 2.87324 32.4889 3.61584C33.2264 4.1297 33.964 4.6373 34.6983 5.15429C34.9757 5.34856 35.2467 5.55535 35.5115 5.76842C35.8708 6.05355 36 6.42328 35.9968 6.88074C35.9842 9.80725 35.9905 12.7369 35.9905 15.6634C35.9905 16.5188 35.9905 17.3711 35.9905 18.2265H35.9937ZM10.6282 19.5518C10.6282 22.6789 10.6282 25.8059 10.6282 28.9298C10.6282 29.0458 10.6282 29.1617 10.6282 29.2776C10.6597 29.9137 10.8961 30.2646 11.5138 30.4056C11.8857 30.4902 12.2892 30.4777 12.6768 30.4589C13.7516 30.4088 14.8232 30.3242 15.898 30.2615C18.536 30.1111 21.1772 29.9638 23.8152 29.8166C26.6045 29.6599 29.3939 29.5032 32.1832 29.3403C32.4385 29.3246 32.7001 29.2964 32.9491 29.2369C33.2706 29.1617 33.5479 28.9956 33.633 28.6572C33.7118 28.3408 33.7875 28.0086 33.7875 27.6828C33.7969 21.3974 33.7938 15.1119 33.7938 8.82339C33.7938 8.74193 33.8001 8.65733 33.7875 8.57586C33.6803 7.8458 33.4975 7.47607 32.615 7.53247C31.6758 7.59514 30.7334 7.62334 29.791 7.6766C27.0111 7.8364 24.2313 8.0056 21.4482 8.16853C19.1254 8.30327 16.8025 8.43486 14.4797 8.57273C13.4553 8.6354 12.4342 8.7106 11.413 8.79519C11.2806 8.80459 11.1388 8.87039 11.0316 8.94873C10.6723 9.20566 10.625 9.59732 10.625 9.99212C10.625 13.1756 10.625 16.3621 10.625 19.5456L10.6282 19.5518ZM12.6611 6.44521V6.45148C13.3513 6.40448 14.0416 6.35121 14.7318 6.31048C17.1303 6.16948 19.5288 6.03788 21.9242 5.89375C23.7963 5.78095 25.6685 5.65562 27.5406 5.54282C28.6973 5.47389 29.854 5.42062 31.0107 5.35169C31.1463 5.34229 31.2786 5.26396 31.411 5.21382C31.3165 5.09476 31.244 4.94749 31.1273 4.85976C30.1818 4.17043 29.2079 3.51557 28.2813 2.80431C27.3578 2.09618 26.3524 1.78285 25.1831 1.88312C23.2069 2.05232 21.2245 2.18392 19.2483 2.32805C16.8214 2.50665 14.3914 2.68838 11.9645 2.86384C10.5431 2.96724 9.11849 3.05497 7.69704 3.15524C7.51738 3.16777 7.32828 3.19284 7.16123 3.25864C6.83345 3.38397 6.80508 3.6503 7.07614 3.8665C7.85147 4.4775 8.64887 5.06343 9.39899 5.70575C10.1586 6.35748 11.0064 6.60815 11.9866 6.48908C12.2104 6.46088 12.4373 6.46088 12.6611 6.44835V6.44521Z" fill="white"/>
<path d="M18.3316 16.2745C18.3064 16.4311 18.2812 16.5126 18.2812 16.5972C18.2812 19.5268 18.2812 22.4534 18.278 25.383C18.278 25.5929 18.3537 25.6932 18.568 25.7371C19.0502 25.8311 19.5261 25.9533 20.0052 26.0598C20.2731 26.1193 20.3424 26.229 20.2227 26.4765C20.0115 26.9089 19.6711 27.1878 19.1794 27.2222C17.8399 27.3162 16.5004 27.3946 15.1578 27.476C14.9088 27.4917 14.6566 27.498 14.4076 27.5136C14.228 27.523 14.1523 27.451 14.1523 27.2661C14.1523 26.8807 14.3667 26.5862 14.748 26.4797C15.0443 26.3982 15.3469 26.3261 15.6368 26.2259C15.7125 26.2008 15.7661 26.088 15.807 26.0034C15.8322 25.9564 15.8133 25.8906 15.8133 25.8311C15.8133 21.858 15.8133 17.885 15.8133 13.912C15.8133 13.561 15.8133 13.5548 15.4635 13.5266C15.1389 13.5015 14.8142 13.4858 14.4896 13.467C14.2059 13.4482 14.1618 13.3981 14.1681 13.113C14.1807 12.4988 14.6377 12.0006 15.2586 11.9536C16.7967 11.844 18.3379 11.7531 19.876 11.6434C20.084 11.6278 20.1785 11.7406 20.2731 11.8847C20.8499 12.7558 21.4266 13.6268 22.0034 14.4979C22.9237 15.8859 23.8472 17.2771 24.7675 18.6652C25.3285 19.5143 25.8896 20.3666 26.4537 21.2157C26.5073 21.294 26.5798 21.3598 26.6964 21.4883C26.709 21.3285 26.7185 21.2439 26.7185 21.1593C26.7185 18.4803 26.7185 15.8013 26.7185 13.1224C26.7185 12.809 26.6901 12.7808 26.3655 12.7401C25.9999 12.6962 25.6374 12.643 25.2718 12.6116C25.0543 12.5928 25.0102 12.4769 25.026 12.2952C25.067 11.7625 25.4767 11.3552 26.044 11.3176C27.0431 11.2518 28.0422 11.1954 29.0413 11.1358C29.4574 11.1108 29.8734 11.0951 30.2894 11.0638C30.4817 11.0481 30.5573 11.1233 30.5826 11.3082C30.6582 11.8816 30.3998 12.2231 29.8104 12.3171C29.615 12.3484 29.4196 12.3923 29.221 12.4268C29.0603 12.455 28.9972 12.5521 29.0004 12.7056C29.0004 12.8059 29.0004 12.9062 29.0004 13.0033C29.0004 17.3837 29.0004 21.764 29.0067 26.1413C29.0067 26.4577 28.9216 26.6301 28.6159 26.7648C27.9697 27.0499 27.3173 27.263 26.5987 27.263C25.9494 27.263 25.4483 27.0092 25.0733 26.5079C24.6667 25.9658 24.2759 25.4081 23.9039 24.8409C23.0467 23.5312 22.2051 22.209 21.3542 20.893C20.6261 19.765 19.8949 18.6401 19.1668 17.509C18.9367 17.1549 18.713 16.7946 18.486 16.4405C18.4608 16.3998 18.423 16.3685 18.3316 16.2682V16.2745Z" fill="white"/>
</g>
<defs>
<filter id="filter0_d_131_989" x="0" y="0" width="40" height="41" filterUnits="userSpaceOnUse" color-interpolation-filters="sRGB">
<feFlood flood-opacity="0" result="BackgroundImageFix"/>
<feColorMatrix in="SourceAlpha" type="matrix" values="0 0 0 0 0 0 0 0 0 0 0 0 0 0 0 0 0 0 127 0" result="hardAlpha"/>
<feOffset dy="4"/>
<feGaussianBlur stdDeviation="2"/>
<feComposite in2="hardAlpha" operator="out"/>
<feColorMatrix type="matrix" values="0 0 0 0 0 0 0 0 0 0 0 0 0 0 0 0 0 0 0.25 0"/>
<feBlend mode="normal" in2="BackgroundImageFix" result="effect1_dropShadow_131_989"/>
<feBlend mode="normal" in="SourceGraphic" in2="effect1_dropShadow_131_989" result="shape"/>
</filter>
<clipPath id="clip0_131_989">
<rect width="32" height="33" fill="white" transform="translate(4)"/>
</clipPath>
</defs>
</svg>
