<svg width="22" height="33" viewBox="0 0 22 33" fill="none" xmlns="http://www.w3.org/2000/svg">
<g opacity="0.8" clip-path="url(#clip0_131_1153)">
<path d="M4.09078 11.3871C3.41234 10.8539 2.69886 10.4188 2.14464 9.82669C0.59983 8.178 0.252646 6.19564 1.06805 4.0988C1.88346 1.99868 3.48878 0.771971 5.69611 0.71309C9.18706 0.621496 12.6844 0.647665 16.1785 0.696734C18.6534 0.732717 20.6632 2.47954 21.2143 4.92968C21.7462 7.2915 20.6378 9.73837 18.491 10.9389C18.303 11.0436 18.1183 11.1515 17.8571 11.302C20.4594 12.6497 21.7908 14.7041 21.2366 17.658C20.8257 19.8431 19.421 21.2956 17.3124 21.7928C14.7993 22.3881 12.8532 21.3577 11.3498 19.0548C11.3084 19.395 11.2638 19.5913 11.2638 19.7875C11.2574 22.1919 11.2861 24.5962 11.2511 27.0006C11.2128 29.7418 9.20936 31.9957 6.59433 32.3032C3.91878 32.6205 1.53946 30.9653 0.838719 28.2992C0.220795 25.9472 1.2719 23.3924 3.34864 22.1984C3.57797 22.0676 3.80412 21.9334 4.15448 21.7274C1.99812 20.5792 0.653978 18.9665 0.682645 16.4902C0.711312 14.0204 2.01405 12.3913 4.0876 11.3871H4.09078ZM10.7892 21.4166C10.7892 18.2631 10.786 15.1588 10.7924 12.0577C10.7924 11.5506 10.4866 11.5441 10.1362 11.5441C8.7061 11.5506 7.27914 11.5277 5.849 11.5572C3.3359 11.6095 1.31331 13.6213 1.14131 16.2023C0.972496 18.7342 2.68293 21.1026 5.15463 21.3806C6.96699 21.5834 8.81758 21.4199 10.7924 21.4199L10.7892 21.4166ZM10.6968 11.0109V1.2005C8.84943 1.2005 7.05299 1.06311 5.28841 1.23321C2.89634 1.46547 1.15405 3.60484 1.11901 6.03535C1.08398 8.45932 2.82945 10.7459 5.14507 10.9716C6.96381 11.1483 8.81121 11.0076 10.7 11.0076L10.6968 11.0109ZM11.2925 10.9814C11.4517 11.0174 11.5282 11.0501 11.6078 11.0501C13.1176 11.0534 14.6305 11.073 16.1403 11.0501C18.4113 11.0207 20.2938 9.44069 20.7556 7.20645C21.2429 4.8479 20.1664 2.59077 18.0514 1.61267C17.5832 1.39677 17.0608 1.20377 16.5576 1.19069C14.8153 1.13835 13.0666 1.17106 11.2956 1.17106V10.9782L11.2925 10.9814ZM10.751 22.0283C10.5121 21.9989 10.3496 21.9629 10.1904 21.9662C8.59462 21.9792 6.99248 21.9302 5.40307 22.0349C2.97597 22.1984 1.07124 24.4654 1.11901 27.0006C1.16998 29.6502 3.17345 31.7536 5.78529 31.8976C8.19647 32.0284 10.5535 30.0722 10.7255 27.6188C10.8529 25.7935 10.751 23.9485 10.751 22.0316V22.0283ZM16.1053 11.5539C13.4265 11.5408 11.2893 13.7227 11.2638 16.4967C11.2383 19.2314 13.3851 21.4755 16.0575 21.5016C18.7012 21.5278 20.9085 19.274 20.9085 16.549C20.9085 13.7849 18.7776 11.567 16.1053 11.5539ZM13.2099 11.4525L13.4074 11.603H11.3179V13.8437L11.1141 13.569L13.2131 11.4525H13.2099Z" fill="white"/>
<path d="M5.93627 33.0002C3.24162 33.0002 0.948289 31.2206 0.22844 28.4728C-0.446817 25.9016 0.667994 23.0917 2.88806 21.721C0.954659 20.4027 0.0245887 18.6821 0.0500701 16.4838C0.0755515 14.2496 1.0311 12.5126 2.9008 11.3088C2.48036 11.0013 2.05354 10.6741 1.68406 10.2783C-0.026374 8.44972 -0.443632 6.22856 0.476884 3.85693C1.40377 1.47222 3.25117 0.124479 5.68146 0.0590545C9.26159 -0.0325395 12.8481 0.000172626 16.1894 0.0459696C18.9382 0.0852242 21.2092 1.98907 21.8367 4.78596C22.3973 7.28844 21.2952 9.91195 19.1388 11.312C21.4321 12.8659 22.3686 15.0837 21.8621 17.789C21.4035 20.2228 19.8396 21.8748 17.457 22.4374C15.3039 22.9477 13.4437 22.3949 11.9021 20.7985C11.9021 21.3056 11.9021 21.8126 11.9021 22.3197C11.9053 23.8571 11.9085 25.4502 11.8894 27.0171C11.848 30.0594 9.60241 32.6142 6.66886 32.9609C6.42042 32.9904 6.17516 33.0034 5.93309 33.0034L5.93627 33.0002ZM8.11493 22.6173C7.22627 22.6173 6.32486 22.6272 5.44576 22.686C3.40406 22.8234 1.71592 24.7927 1.75732 26.9844C1.80192 29.2873 3.54739 31.116 5.81842 31.2403C7.92064 31.3548 9.94641 29.6047 10.0897 27.5667C10.1757 26.3367 10.1566 25.11 10.1343 23.8081C10.128 23.4122 10.1216 23.0164 10.1184 22.6173C9.67567 22.6206 9.23293 22.6173 8.79019 22.6173C8.56723 22.6173 8.34108 22.6173 8.11493 22.6173ZM16.0811 12.2051C13.7591 12.2051 11.9244 14.086 11.9021 16.5002C11.8894 17.6484 12.3162 18.7311 13.1029 19.5522C13.8897 20.3733 14.9408 20.8313 16.0619 20.8443C17.1768 20.8509 18.2151 20.4125 19.0178 19.5947C19.8268 18.7737 20.2696 17.6909 20.2696 16.546C20.2696 14.122 18.4381 12.2149 16.1033 12.2051H16.0811ZM7.61804 12.192C7.03516 12.192 6.44272 12.192 5.86301 12.2083C3.68435 12.2541 1.92932 13.9879 1.77643 16.245C1.62673 18.4858 3.17154 20.4976 5.22279 20.7266C6.42679 20.8607 7.65308 20.8313 8.95263 20.7953C9.34441 20.7855 9.74574 20.7757 10.1503 20.7691V19.055C10.1503 16.7553 10.1503 14.4786 10.1534 12.1985H10.1375C9.63745 12.1985 9.13737 12.1985 8.6373 12.1985C8.29967 12.1985 7.95886 12.1985 7.61486 12.1985L7.61804 12.192ZM7.32819 1.79934C6.65931 1.79934 6.00316 1.81897 5.34702 1.88439C3.3308 2.08066 1.78599 3.87002 1.75414 6.04537C1.72229 8.21419 3.2671 10.1311 5.2005 10.3209C6.42042 10.4419 7.64353 10.4124 8.93671 10.3797C9.30937 10.3699 9.68204 10.3634 10.0547 10.3568V1.85168C9.69159 1.84514 9.32848 1.83859 8.96856 1.82878C8.40797 1.8157 7.8633 1.80261 7.32501 1.80261L7.32819 1.79934ZM11.9308 10.3961H12.8003C13.8928 10.4059 15.0236 10.4124 16.132 10.3961C18.0877 10.3699 19.7313 9.00255 20.1326 7.06927C20.5594 5.00513 19.6166 3.05221 17.7915 2.20824C17.2819 1.97271 16.871 1.85168 16.5397 1.84187C15.2879 1.80588 14.0043 1.81242 12.7621 1.81897C12.485 1.81897 12.2079 1.81897 11.9308 1.82224V10.3994V10.3961Z" fill="white"/>
</g>
<defs>
<clipPath id="clip0_131_1153">
<rect width="22" height="33" fill="white"/>
</clipPath>
</defs>
</svg>
