<svg width="34" height="33" viewBox="0 0 34 33" fill="none" xmlns="http://www.w3.org/2000/svg">
<g opacity="0.8" clip-path="url(#clip0_131_992)">
<path d="M20.3366 24.4509C21.0021 24.3108 21.5895 24.2143 22.1643 24.0618C24.5389 23.4363 26.4667 22.2256 27.2665 19.7855C28.0726 17.3205 28.3507 14.812 26.8385 12.4964C26.3511 11.7495 26.2198 11.1301 26.4292 10.2805C26.6698 9.30319 26.4136 8.31969 26.0699 7.37355C25.9511 7.04986 25.7418 6.89113 25.4356 6.97206C24.6639 7.17436 23.9015 7.41089 23.1392 7.65054C22.9454 7.71279 22.7424 7.79993 22.5924 7.93376C21.6738 8.74608 20.6459 8.62159 19.5554 8.39128C17.4027 7.93688 15.2625 8.12362 13.1348 8.62781C12.941 8.6745 12.6942 8.62781 12.5067 8.54067C11.4851 8.08004 10.479 7.59141 9.46356 7.11834C9.34795 7.06231 9.2136 7.0343 9.0855 7.01252C8.17004 6.85379 7.91696 7.09966 7.72325 8.00535C7.50142 9.05109 7.47017 10.0657 7.73262 11.1021C7.78886 11.3262 7.75449 11.6686 7.61389 11.8335C6.17978 13.5297 5.97045 15.5123 6.22353 17.5975C6.40787 19.1226 6.86091 20.5605 7.86385 21.7681C8.86991 22.9819 10.2322 23.6292 11.7225 24.0307C12.3349 24.1957 12.9629 24.3046 13.6722 24.4571C13.4941 24.8088 13.3285 25.1636 13.1348 25.506C12.8692 25.9759 13.041 26.7104 12.2693 26.8754C11.2882 27.087 10.3228 27.2769 9.36357 26.754C8.62308 26.3494 8.18254 25.6865 7.72325 25.0236C7.14211 24.1832 6.34538 23.6479 5.32681 23.5141C5.09873 23.483 4.8394 23.6759 4.59258 23.7662C4.7113 23.9809 4.77692 24.2859 4.96126 24.398C6.09855 25.0982 6.6547 26.1969 7.1796 27.3516C7.70138 28.4969 8.73869 28.9949 9.92285 29.1443C10.6633 29.2376 11.4226 29.1878 12.1724 29.1598C12.588 29.1443 12.8067 29.2376 12.7942 29.7045C12.7786 30.4514 12.8192 31.2015 12.8129 31.9485C12.8067 32.7701 12.3943 33.1903 11.6382 32.9102C10.3103 32.4184 8.98552 31.8582 7.77636 31.133C5.6955 29.885 4.06142 28.139 2.73979 26.1066C1.79621 24.6532 1.05885 23.1064 0.62143 21.435C0.177761 19.7295 -0.0784415 17.9897 0.0215402 16.2219C0.234001 12.5182 1.4494 9.19426 3.80522 6.28734C5.74861 3.88774 8.17629 2.1604 11.0476 1.06797C13.8253 0.00978112 16.7216 -0.226756 19.6398 0.205858C22.9236 0.694493 25.8355 2.07325 28.3132 4.28612C30.3972 6.14418 31.9313 8.38505 32.9186 11.0119C33.7403 13.1998 34.1028 15.45 33.9778 17.7656C33.8872 19.4649 33.5654 21.1207 32.9624 22.736C31.8001 25.8545 29.8942 28.3942 27.2759 30.4297C25.9199 31.4847 24.4077 32.2628 22.7986 32.8448C21.6988 33.2432 21.2458 32.8915 21.2333 31.7275C21.2176 30.1371 21.1989 28.5467 21.1864 26.9563C21.1801 26.228 20.9958 25.5558 20.5803 24.9489C20.4897 24.815 20.4334 24.6563 20.3334 24.4509H20.3366Z" fill="white"/>
</g>
<defs>
<clipPath id="clip0_131_992">
<rect width="34" height="33" fill="white"/>
</clipPath>
</defs>
</svg>
