<svg width="32" height="32" viewBox="0 0 32 32" fill="none" xmlns="http://www.w3.org/2000/svg">
<path opacity="0.5" d="M15.7935 0C6.84516 0 0 6.96764 0 16.1453C0 23.4835 4.50323 29.763 10.9355 31.973C11.7613 32.1252 12.0516 31.6025 12.0516 31.1724C12.0516 30.7621 12.0323 28.4991 12.0323 27.1096C12.0323 27.1096 7.51613 28.1021 6.56774 25.1377C6.56774 25.1377 5.83226 23.2122 4.77419 22.7159C4.77419 22.7159 3.29677 21.6771 4.87742 21.6969C4.87742 21.6969 6.48387 21.8293 7.36774 23.4041C8.78064 25.9582 11.1484 25.2238 12.071 24.787C12.2194 23.7283 12.6387 22.9939 13.1032 22.5571C9.49677 22.1469 5.85806 21.6109 5.85806 15.2454C5.85806 13.4258 6.34839 12.5126 7.38065 11.348C7.2129 10.9179 6.66452 9.14461 7.54839 6.85515C8.89677 6.42505 12 8.64172 12 8.64172C13.2903 8.27117 14.6774 8.07928 16.0516 8.07928C17.4258 8.07928 18.8129 8.27117 20.1032 8.64172C20.1032 8.64172 23.2065 6.41843 24.5548 6.85515C25.4387 9.15122 24.8903 10.9179 24.7226 11.348C25.7548 12.5192 26.3871 13.4324 26.3871 15.2454C26.3871 21.6308 22.5871 22.1403 18.9806 22.5571C19.5742 23.0799 20.0774 24.0724 20.0774 25.6274C20.0774 27.8573 20.0581 30.6166 20.0581 31.1592C20.0581 31.5893 20.3548 32.112 21.1742 31.9598C27.6258 29.763 32 23.4835 32 16.1453C32 6.96764 24.7419 0 15.7935 0Z" fill="black" fill-opacity="0.81"/>
</svg>
