<svg width="24" height="21" viewBox="0 0 24 21" fill="none" xmlns="http://www.w3.org/2000/svg">
<path fill-rule="evenodd" clip-rule="evenodd" d="M6.85714 18.5C6.85714 17.9477 7.2409 17.5 7.71429 17.5H23.1429C23.6162 17.5 24 17.9477 24 18.5C24 19.0523 23.6162 19.5 23.1429 19.5H7.71429C7.2409 19.5 6.85714 19.0523 6.85714 18.5Z" fill="white"/>
<path fill-rule="evenodd" clip-rule="evenodd" d="M6.85714 10.5C6.85714 9.94772 7.2409 9.5 7.71429 9.5H23.1429C23.6162 9.5 24 9.94772 24 10.5C24 11.0523 23.6162 11.5 23.1429 11.5H7.71429C7.2409 11.5 6.85714 11.0523 6.85714 10.5Z" fill="white"/>
<path fill-rule="evenodd" clip-rule="evenodd" d="M6.85714 2.5C6.85714 1.94772 7.2409 1.5 7.71429 1.5H23.1429C23.6162 1.5 24 1.94772 24 2.5C24 3.05228 23.6162 3.5 23.1429 3.5H7.71429C7.2409 3.5 6.85714 3.05228 6.85714 2.5Z" fill="white"/>
<path fill-rule="evenodd" clip-rule="evenodd" d="M1.71429 4.5C2.66106 4.5 3.42857 3.60457 3.42857 2.5C3.42857 1.39543 2.66106 0.5 1.71429 0.5C0.767512 0.5 0 1.39543 0 2.5C0 3.60457 0.767512 4.5 1.71429 4.5Z" fill="white"/>
<path fill-rule="evenodd" clip-rule="evenodd" d="M1.71429 12.5C2.66106 12.5 3.42857 11.6046 3.42857 10.5C3.42857 9.39543 2.66106 8.5 1.71429 8.5C0.767512 8.5 0 9.39543 0 10.5C0 11.6046 0.767512 12.5 1.71429 12.5Z" fill="white"/>
<path fill-rule="evenodd" clip-rule="evenodd" d="M1.71429 20.5C2.66106 20.5 3.42857 19.6046 3.42857 18.5C3.42857 17.3954 2.66106 16.5 1.71429 16.5C0.767512 16.5 0 17.3954 0 18.5C0 19.6046 0.767512 20.5 1.71429 20.5Z" fill="white"/>
</svg>
